<svg width="90" height="90" viewBox="0 0 90 90" fill="none" xmlns="http://www.w3.org/2000/svg">
<circle cx="45" cy="45" r="45" fill="#19999F"/>
<g clip-path="url(#clip0)">
<path d="M41.2812 41.125C40.9083 41.125 40.5506 41.2765 40.2869 41.546C40.0232 41.8156 39.875 42.1813 39.875 42.5625C39.875 42.9437 40.0232 43.3094 40.2869 43.579C40.5506 43.8485 40.9083 44 41.2812 44H52.5312C52.9042 44 53.2619 43.8485 53.5256 43.579C53.7893 43.3094 53.9375 42.9437 53.9375 42.5625C53.9375 42.1813 53.7893 41.8156 53.5256 41.546C53.2619 41.2765 52.9042 41.125 52.5312 41.125H41.2812Z" fill="white"/>
<path d="M24.4062 23.875C24.0333 23.875 23.6756 24.0265 23.4119 24.296C23.1482 24.5656 23 24.9313 23 25.3125C23 25.6937 23.1482 26.0594 23.4119 26.329C23.6756 26.5985 24.0333 26.75 24.4062 26.75H27.5281L28.6559 31.3701L32.8691 54.327C32.9294 54.6564 33.1004 54.9539 33.3526 55.1681C33.6047 55.3823 33.9222 55.4997 34.25 55.5H37.0625C35.5707 55.5 34.1399 56.1058 33.085 57.1841C32.0301 58.2625 31.4375 59.725 31.4375 61.25C31.4375 62.775 32.0301 64.2375 33.085 65.3159C34.1399 66.3942 35.5707 67 37.0625 67C38.5543 67 39.9851 66.3942 41.04 65.3159C42.0949 64.2375 42.6875 62.775 42.6875 61.25C42.6875 59.725 42.0949 58.2625 41.04 57.1841C39.9851 56.1058 38.5543 55.5 37.0625 55.5H56.75C55.2582 55.5 53.8274 56.1058 52.7725 57.1841C51.7176 58.2625 51.125 59.725 51.125 61.25C51.125 62.775 51.7176 64.2375 52.7725 65.3159C53.8274 66.3942 55.2582 67 56.75 67C58.2418 67 59.6726 66.3942 60.7275 65.3159C61.7824 64.2375 62.375 62.775 62.375 61.25C62.375 59.725 61.7824 58.2625 60.7275 57.1841C59.6726 56.1058 58.2418 55.5 56.75 55.5H59.5625C59.8903 55.4997 60.2078 55.3823 60.4599 55.1681C60.7121 54.9539 60.8831 54.6564 60.9434 54.327L65.1622 31.327C65.2002 31.1195 65.193 30.9061 65.1412 30.7017C65.0894 30.4974 64.9942 30.3073 64.8624 30.1448C64.7305 29.9823 64.5653 29.8515 64.3785 29.7617C64.1916 29.6719 63.9877 29.6252 63.7812 29.625H31.1281L29.9891 24.9646C29.9132 24.6535 29.7377 24.3773 29.4905 24.1798C29.2433 23.9824 28.9387 23.8751 28.625 23.875H24.4062ZM35.4172 52.625L31.7244 32.5H62.0881L58.3953 52.625H35.4172ZM39.875 61.25C39.875 62.0125 39.5787 62.7438 39.0512 63.2829C38.5238 63.8221 37.8084 64.125 37.0625 64.125C36.3166 64.125 35.6012 63.8221 35.0738 63.2829C34.5463 62.7438 34.25 62.0125 34.25 61.25C34.25 60.4875 34.5463 59.7562 35.0738 59.2171C35.6012 58.6779 36.3166 58.375 37.0625 58.375C37.8084 58.375 38.5238 58.6779 39.0512 59.2171C39.5787 59.7562 39.875 60.4875 39.875 61.25ZM59.5625 61.25C59.5625 62.0125 59.2662 62.7438 58.7387 63.2829C58.2113 63.8221 57.4959 64.125 56.75 64.125C56.0041 64.125 55.2887 63.8221 54.7613 63.2829C54.2338 62.7438 53.9375 62.0125 53.9375 61.25C53.9375 60.4875 54.2338 59.7562 54.7613 59.2171C55.2887 58.6779 56.0041 58.375 56.75 58.375C57.4959 58.375 58.2113 58.6779 58.7387 59.2171C59.2662 59.7562 59.5625 60.4875 59.5625 61.25Z" fill="white"/>
</g>
<defs>
<clipPath id="clip0">
<rect width="45" height="46" fill="white" transform="translate(23 21)"/>
</clipPath>
</defs>
</svg>
