<svg width="25" height="23" viewBox="0 0 25 23" fill="none" xmlns="http://www.w3.org/2000/svg">
<path d="M5.72916 5.24984V4.729C5.72916 2.14325 7.82915 0.0415039 10.4167 0.0415039C13.0051 0.0415039 15.1042 2.14156 15.1042 4.729V5.24984H16.7849C18.1845 5.24984 19.4023 6.34684 19.5444 7.7412L20.8197 20.2556C20.9697 21.7271 19.8597 22.9582 18.3829 22.9582H2.45046C0.970557 22.9582 -0.136715 21.7314 0.0136847 20.2556L1.28903 7.7412C1.43072 6.35083 2.65137 5.24984 4.04852 5.24984H5.72916ZM5.72916 7.33317H4.04852C3.71954 7.33317 3.39489 7.62599 3.36163 7.95242L2.08628 20.4668C2.06097 20.7152 2.20504 20.8748 2.45046 20.8748H18.3829C18.6247 20.8748 18.772 20.7114 18.7471 20.4668L17.4718 7.95242C17.4381 7.62257 17.1169 7.33317 16.7849 7.33317H15.1042V9.4165C15.1042 9.9918 14.6378 10.4582 14.0625 10.4582C13.4872 10.4582 13.0208 9.9918 13.0208 9.4165V7.33317H7.81249V9.4165C7.81249 9.9918 7.34612 10.4582 6.77083 10.4582C6.19553 10.4582 5.72916 9.9918 5.72916 9.4165V7.33317ZM13.0208 5.24984V4.2883C13.0208 3.09409 11.8547 2.12484 10.4167 2.12484C8.97915 2.12484 7.81249 3.09487 7.81249 4.2883V5.24984H13.0208Z" fill="#A3A5AD"/>
<circle cx="17.4166" cy="7.5" r="6.5" fill="#FF6D6D" stroke="white" stroke-width="2"/>
</svg>
