<svg width="26" height="23" viewBox="0 0 26 23" fill="none" xmlns="http://www.w3.org/2000/svg">
<path fill-rule="evenodd" clip-rule="evenodd" d="M12.9286 20.9039C9.25201 18.9824 1.61607 14.1148 1.61607 6.8683C1.61607 3.9723 3.9723 1.61607 6.8683 1.61607C9.7643 1.61607 12.1205 3.9723 12.1205 6.8683C12.1205 7.31434 12.4825 7.67634 12.9286 7.67634C13.3746 7.67634 13.7366 7.31434 13.7366 6.8683C13.7366 3.9723 16.0928 1.61607 18.9888 1.61607C21.8848 1.61607 24.2411 3.9723 24.2411 6.8683C24.2411 14.1148 16.6051 18.9824 12.9286 20.9039ZM18.9888 0C16.3482 0 14.0776 1.51425 12.9286 3.70565C11.7795 1.51425 9.50896 0 6.8683 0C3.08184 0 0 3.08023 0 6.8683C0 15.2525 8.78655 20.6195 12.5617 22.5377L12.5666 22.5297C12.6765 22.5862 12.7961 22.625 12.9286 22.625C13.0611 22.625 13.1806 22.5862 13.2905 22.5297L13.2955 22.5377C17.0706 20.6195 25.8571 15.2525 25.8571 6.8683C25.8571 3.08023 22.7769 0 18.9888 0Z" fill="#A3A5AD"/>
</svg>
