<svg width="25" height="25" viewBox="0 0 25 25" fill="none" xmlns="http://www.w3.org/2000/svg">
<path d="M7.81266 6.24984V5.729C7.81266 3.14325 9.91265 1.0415 12.5002 1.0415C15.0886 1.0415 17.1877 3.14156 17.1877 5.729V6.24984H18.8684C20.268 6.24984 21.4858 7.34684 21.6278 8.7412L22.9032 21.2556C23.0532 22.7271 21.9432 23.9582 20.4664 23.9582H4.53395C3.05405 23.9582 1.94678 22.7314 2.09718 21.2556L3.37253 8.7412C3.51422 7.35083 4.73487 6.24984 6.13201 6.24984H7.81266ZM7.81266 8.33317H6.13201C5.80304 8.33317 5.47839 8.62599 5.44512 8.95242L4.16978 21.4668C4.14446 21.7152 4.28854 21.8748 4.53395 21.8748H20.4664C20.7082 21.8748 20.8555 21.7114 20.8306 21.4668L19.5553 8.95242C19.5216 8.62257 19.2004 8.33317 18.8684 8.33317H17.1877V10.4165C17.1877 10.9918 16.7213 11.4582 16.146 11.4582C15.5707 11.4582 15.1043 10.9918 15.1043 10.4165V8.33317H9.89599V10.4165C9.89599 10.9918 9.42962 11.4582 8.85432 11.4582C8.27903 11.4582 7.81266 10.9918 7.81266 10.4165V8.33317ZM15.1043 6.24984V5.2883C15.1043 4.09409 13.9382 3.12484 12.5002 3.12484C11.0627 3.12484 9.89599 4.09487 9.89599 5.2883V6.24984H15.1043Z" fill="#A3A5AD"/>
</svg>
