<svg width="20" height="14" viewBox="0 0 20 14" fill="none" xmlns="http://www.w3.org/2000/svg">
<path d="M7.01 9.00003H1C0.45 9.00003 0 9.45003 0 10C0 10.55 0.45 11 1 11H7.01V12.79C7.01 13.24 7.55 13.46 7.86 13.14L10.64 10.35C10.83 10.15 10.83 9.84003 10.64 9.64003L7.86 6.85003C7.55 6.53003 7.01 6.76003 7.01 7.20003V9.00003ZM12.99 6.79003V5.00003H19C19.55 5.00003 20 4.55003 20 4.00003C20 3.45003 19.55 3.00003 19 3.00003H12.99V1.21003C12.99 0.76003 12.45 0.540031 12.14 0.860031L9.36 3.65003C9.17 3.85003 9.17 4.16003 9.36 4.36003L12.14 7.15003C12.2105 7.21913 12.2999 7.26582 12.3969 7.28421C12.4938 7.30261 12.5941 7.29187 12.685 7.25338C12.7759 7.21488 12.8534 7.15033 12.9076 7.06788C12.9619 6.98542 12.9906 6.88874 12.99 6.79003Z" fill="black"/>
</svg>
