<svg width="27" height="27" viewBox="0 0 27 27" fill="none" xmlns="http://www.w3.org/2000/svg">
<path d="M20.4665 10.1084C20.5733 6.49802 17.7331 3.48467 14.1228 3.37786C14.0583 3.37595 13.9938 3.375 13.9294 3.375H12.9582C9.37574 3.375 6.47158 6.27916 6.47158 9.86162C6.47158 9.94243 6.47309 10.0232 6.47611 10.104L6.69943 16.0768C6.73696 17.0806 6.38942 18.0608 5.72795 18.8168L4.30582 20.4421C4.10125 20.6759 4.12494 21.0313 4.35874 21.2358C4.46128 21.3255 4.5929 21.375 4.72915 21.375H22.2707C22.5813 21.375 22.8332 21.1232 22.8332 20.8125C22.8332 20.6763 22.7837 20.5446 22.694 20.4421L21.2619 18.8054C20.6074 18.0574 20.26 17.0895 20.2893 16.0961L20.4665 10.1084ZM22.1085 18.0645L23.5406 19.7013C23.8098 20.0089 23.9582 20.4037 23.9582 20.8125C23.9582 21.7445 23.2027 22.5 22.2707 22.5H4.72915C4.3204 22.5 3.92554 22.3516 3.61792 22.0825C2.91654 21.4688 2.84546 20.4027 3.45918 19.7013L4.8813 18.076C5.35378 17.536 5.60202 16.8359 5.57521 16.1189L5.3519 10.146C5.34835 10.0513 5.34658 9.95645 5.34658 9.86162C5.34658 5.65784 8.75442 2.25 12.9582 2.25H13.9294C14.0049 2.25 14.0805 2.25112 14.156 2.25335C18.3874 2.37853 21.7162 5.91023 21.591 10.1416L21.4139 16.1293C21.3929 16.839 21.641 17.5303 22.1085 18.0645ZM10.4079 23.8547C10.2832 23.5702 10.4126 23.2384 10.6971 23.1136C10.9816 22.9888 11.3134 23.1183 11.4382 23.4028C11.7943 24.2146 12.598 24.75 13.4999 24.75C14.3992 24.75 15.2009 24.2178 15.5586 23.4096C15.6844 23.1255 16.0166 22.9971 16.3007 23.1229C16.5848 23.2486 16.7131 23.5808 16.5874 23.8649C16.051 25.0767 14.8484 25.875 13.4999 25.875C12.1474 25.875 10.9419 25.0719 10.4079 23.8547ZM6.18741 16.875H18.6989C19.4489 16.875 19.4489 18 18.6989 18H6.18741C5.43741 18 5.43741 16.875 6.18741 16.875Z" fill="#838092"/>
</svg>
