<svg width="22" height="22" viewBox="0 0 22 22" fill="none" xmlns="http://www.w3.org/2000/svg">
<path d="M17.875 0C19.0113 0 19.9829 0.403429 20.7897 1.21029C21.5966 2.01714 22 2.98872 22 4.125V17.875C22 19.0113 21.5966 19.9829 20.7897 20.7897C19.9829 21.5966 19.0113 22 17.875 22H15.1823V13.4779H18.0326L18.4622 10.1549H15.1823V8.03516C15.1823 7.50043 15.2945 7.09939 15.5189 6.83203C15.7433 6.56467 16.1801 6.43099 16.8294 6.43099L18.5768 6.41667V3.45182C17.9753 3.36589 17.1254 3.32292 16.0273 3.32292C14.7287 3.32292 13.6903 3.70486 12.9121 4.46875C12.1339 5.23264 11.7448 6.31163 11.7448 7.70573V10.1549H8.88021V13.4779H11.7448V22H4.125C2.98872 22 2.01714 21.5966 1.21029 20.7897C0.403429 19.9829 0 19.0113 0 17.875V4.125C0 2.98872 0.403429 2.01714 1.21029 1.21029C2.01714 0.403429 2.98872 0 4.125 0H17.875Z" fill="#006ED9"/>
</svg>
