<svg width="19" height="17" viewBox="0 0 19 17" fill="none" xmlns="http://www.w3.org/2000/svg">
<path d="M9.5 17C9.36879 16.9996 9.24141 16.9561 9.13775 16.8763C5.83597 14.3319 3.56154 12.1409 1.97004 9.97932C-0.0609132 7.21699 -0.524113 4.66669 0.592317 2.3991C1.38807 0.7794 3.67438 -0.545812 6.34668 0.225756C7.6208 0.590772 8.73245 1.37356 9.5 2.44622C10.2676 1.37356 11.3792 0.590772 12.6533 0.225756C15.3197 -0.534032 17.6119 0.7794 18.4077 2.3991C19.5241 4.66669 19.0609 7.21699 17.03 9.97932C15.4385 12.1409 13.164 14.3319 9.86225 16.8763C9.75859 16.9561 9.63121 16.9996 9.5 17ZM4.82644 1.1858C4.19058 1.16125 3.55998 1.30892 3.00235 1.61296C2.44471 1.91699 1.98108 2.36591 1.66124 2.91152C0.740778 4.78449 1.15647 6.86949 2.93207 9.27843C4.81905 11.6924 7.02866 13.8403 9.5 15.663C11.9709 13.8422 14.1805 11.6962 16.0679 9.28432C17.8495 6.86949 18.2592 4.78449 17.3388 2.91741C16.7449 1.73944 14.9634 0.80296 12.9799 1.3566C12.344 1.54302 11.7544 1.85943 11.2491 2.28548C10.7439 2.71152 10.3342 3.23776 10.0463 3.83033C10.0016 3.93836 9.92549 4.03076 9.82768 4.09578C9.72987 4.1608 9.61478 4.19552 9.49703 4.19552C9.37928 4.19552 9.26419 4.1608 9.16638 4.09578C9.06857 4.03076 8.99246 3.93836 8.94772 3.83033C8.66207 3.23628 8.25306 2.70881 7.7475 2.2825C7.24193 1.85619 6.65124 1.54066 6.01413 1.3566C5.62811 1.24541 5.2284 1.18792 4.82644 1.1858Z" fill="white"/>
</svg>
