<svg width="90" height="90" viewBox="0 0 90 90" fill="none" xmlns="http://www.w3.org/2000/svg">
<circle cx="45" cy="45" r="45" fill="#19999F"/>
<path d="M46.625 40.25L53 40.25L44.5 50.875L36 40.25L42.375 40.25L42.375 21.125L46.625 21.125L46.625 40.25ZM38.125 24.2232L38.125 28.7368C34.472 30.2201 31.4478 32.9266 29.5699 36.3934C27.6919 39.8601 27.0769 43.8717 27.8299 47.7418C28.583 51.6119 30.6573 55.1002 33.6981 57.6098C36.7389 60.1195 40.5573 61.4946 44.5 61.5C48.4468 61.5022 52.2715 60.131 55.3179 57.6217C58.3643 55.1123 60.4427 51.6211 61.1965 47.7469C61.9504 43.8727 61.3327 39.857 59.4494 36.3884C57.5662 32.9198 54.5347 30.2146 50.875 28.7368L50.875 24.2232C59.4961 26.9305 65.75 34.9843 65.75 44.5C65.75 56.2364 56.2364 65.75 44.5 65.75C32.7636 65.75 23.25 56.2364 23.25 44.5C23.25 34.9843 29.5039 26.9305 38.125 24.2232Z" fill="white"/>
</svg>
