<svg width="51" height="45" viewBox="0 0 51 45" fill="none" xmlns="http://www.w3.org/2000/svg">
<path d="M14.8383 14.9375L17.0135 0.5H5.7L0.97275 12.875C0.827 13.315 0.75 13.7715 0.75 14.25C0.75 17.286 3.9125 19.75 7.82025 19.75C11.4228 19.75 14.401 17.649 14.8383 14.9375ZM25.5 19.75C29.405 19.75 32.5702 17.286 32.5702 14.25C32.5702 14.1372 32.562 14.0245 32.5565 13.9173L31.1567 0.5H19.8433L18.4408 13.9062C18.4352 14.019 18.4298 14.1318 18.4298 14.25C18.4298 17.286 21.595 19.75 25.5 19.75ZM39.25 22.6265V33.5H11.75V22.643C10.5455 23.0775 9.22 23.325 7.82025 23.325C7.284 23.325 6.76425 23.2618 6.25 23.1903V40.65C6.25 42.7675 7.97975 44.5 10.0945 44.5H40.9C43.0175 44.5 44.75 42.7648 44.75 40.65V23.193C44.2302 23.2728 43.7056 23.3178 43.1798 23.3277C41.8388 23.3264 40.5086 23.089 39.25 22.6265ZM50.03 12.875L45.2972 0.5H33.9865L36.159 14.9155C36.5825 17.638 39.5608 19.75 43.1798 19.75C47.0848 19.75 50.25 17.286 50.25 14.25C50.25 13.7715 50.173 13.315 50.03 12.875Z" fill="white"/>
</svg>
