<svg width="24" height="24" viewBox="0 0 24 24" fill="none" xmlns="http://www.w3.org/2000/svg">
<path fill-rule="evenodd" clip-rule="evenodd" d="M21.8535 11.1468C22.0485 11.3418 22.0485 11.6587 21.8535 11.8537L17.8532 15.854C17.7548 15.9524 17.6273 16.0012 17.4988 16.0012C17.3723 16.0012 17.2438 15.9524 17.1454 15.854C16.9504 15.659 16.9504 15.3421 17.1454 15.1471L20.2925 12.001H12.499C12.2234 12.001 11.9993 11.7769 11.9993 11.5013C11.9993 11.2247 12.2234 11.0016 12.499 11.0016H20.2925L17.1463 7.85448C16.9513 7.65948 16.9513 7.34261 17.1463 7.14761C17.3413 6.95261 17.6582 6.95261 17.8532 7.14761L21.8535 11.1479V11.1468ZM10.5003 20.0006C5.81288 20.0006 2 16.1878 2 11.5003C2 6.81384 5.81288 3 10.5003 3C11.9656 3.00094 13.4178 3.38626 14.6984 4.11562C14.9384 4.25155 15.0228 4.55717 14.8868 4.79717C14.75 5.03623 14.4434 5.11872 14.2053 4.98373C13.0747 4.33967 11.794 3.99935 10.5011 3.99935C6.36497 3.99935 3.00113 7.36318 3.00113 11.4993C3.00113 15.6355 6.36497 18.9993 10.5011 18.9993C11.7939 18.9993 13.0746 18.659 14.2053 18.0159C14.4443 17.88 14.75 17.9615 14.8868 18.2025C15.0228 18.4425 14.9384 18.7471 14.6984 18.884C13.4168 19.6143 11.9655 20.0006 10.5003 20.0006V20.0006Z" fill="#838092"/>
</svg>
