<svg width="22" height="22" viewBox="0 0 22 22" fill="none" xmlns="http://www.w3.org/2000/svg">
<path d="M10.3098 2.23262C10.3697 2.04836 10.6303 2.04836 10.6902 2.23262L12.5774 8.04073C12.6577 8.28795 12.8881 8.45532 13.148 8.45532H19.255C19.4488 8.45532 19.5293 8.70324 19.3726 8.81712L14.4319 12.4067C14.2216 12.5595 14.1336 12.8303 14.2139 13.0776L16.1011 18.8857C16.161 19.0699 15.9501 19.2231 15.7933 19.1093L10.8527 15.5197C10.6424 15.3669 10.3576 15.3669 10.1473 15.5197L5.20666 19.1093C5.04991 19.2231 4.83902 19.0699 4.89889 18.8857L6.78606 13.0776C6.86638 12.8303 6.77839 12.5595 6.56809 12.4067L1.62742 8.81713C1.47068 8.70324 1.55124 8.45532 1.74498 8.45532H7.85199C8.11192 8.45532 8.3423 8.28795 8.42262 8.04073L10.3098 2.23262Z" stroke="#838092" stroke-width="0.4"/>
<path d="M17.1196 1.17082C17.2393 0.802297 17.7607 0.802296 17.8804 1.17082L18.4205 2.83303C18.4741 2.99784 18.6276 3.10942 18.8009 3.10942H20.5487C20.9362 3.10942 21.0973 3.60527 20.7838 3.83303L19.3698 4.86033C19.2296 4.96219 19.171 5.14274 19.2245 5.30755L19.7646 6.96976C19.8844 7.33828 19.4626 7.64473 19.1491 7.41697L17.7351 6.38967C17.5949 6.28781 17.4051 6.28781 17.2649 6.38967L15.8509 7.41697C15.5374 7.64473 15.1156 7.33828 15.2354 6.96976L15.7755 5.30755C15.829 5.14274 15.7704 4.96219 15.6302 4.86033L14.2162 3.83303C13.9027 3.60527 14.0638 3.10942 14.4513 3.10942H16.1991C16.3724 3.10942 16.5259 2.99784 16.5795 2.83303L17.1196 1.17082Z" fill="#838092"/>
</svg>
