<svg width="20" height="20" viewBox="0 0 20 20" fill="none" xmlns="http://www.w3.org/2000/svg">
<path d="M10 20C9.93333 20 9.86667 20 9.8 19.9333C9.4 19.6 0 12.2667 0 5.6C0 2.53333 2.53333 0 5.6 0C7.53333 0 9.06667 1.2 10 2.4C10.9333 1.2 12.5333 0 14.4 0C17.4667 0 20 2.53333 20 5.6C20 12.2667 10.6 19.6 10.2 19.9333C10.1333 20 10.0667 20 10 20ZM5.6 0.666667C2.86667 0.666667 0.666667 2.86667 0.666667 5.6C0.666667 11.4 8.6 18.1333 10 19.2667C11.4 18.1333 19.3333 11.4667 19.3333 5.6C19.3333 2.86667 17.1333 0.666667 14.4 0.666667C12.5333 0.666667 11.0667 1.93333 10.2667 3.2C10.1333 3.4 9.8 3.4 9.73333 3.2C8.93333 1.93333 7.46667 0.666667 5.6 0.666667Z" fill="#838092"/>
</svg>
