<svg width="18" height="18" viewBox="0 0 18 18" fill="none" xmlns="http://www.w3.org/2000/svg">
<path d="M17.0248 5.70578C17.0157 5.02085 16.8875 4.34274 16.6459 3.70178C16.4364 3.16112 16.1165 2.67011 15.7065 2.26012C15.2965 1.85012 14.8055 1.53016 14.2648 1.32067C13.6321 1.08315 12.9636 0.954725 12.2879 0.940852C11.418 0.901965 11.1422 0.891113 8.93378 0.891113C6.7254 0.891113 6.44235 0.891113 5.57871 0.940852C4.90332 0.954827 4.23519 1.08325 3.60275 1.32067C3.06201 1.53001 2.57092 1.84993 2.16091 2.25994C1.7509 2.66995 1.43098 3.16104 1.22164 3.70178C0.983649 4.33402 0.855498 5.0023 0.842726 5.67774C0.80384 6.54861 0.792084 6.82443 0.792084 9.03281C0.792084 11.2412 0.792084 11.5233 0.842726 12.3879C0.856291 13.0643 0.983802 13.7317 1.22164 14.3657C1.43134 14.9062 1.75149 15.3971 2.16164 15.807C2.57179 16.2168 3.06292 16.5366 3.60365 16.7459C4.23436 16.9929 4.90261 17.1305 5.57962 17.1528C6.45049 17.1917 6.72631 17.2034 8.93469 17.2034C11.1431 17.2034 11.4261 17.2034 12.2898 17.1528C12.9654 17.1395 13.6339 17.0114 14.2666 16.7739C14.8071 16.5642 15.298 16.2441 15.708 15.8341C16.1179 15.4242 16.438 14.9333 16.6477 14.3928C16.8856 13.7598 17.0131 13.0924 17.0266 12.415C17.0655 11.545 17.0773 11.2692 17.0773 9.05994C17.0755 6.85156 17.0755 6.57122 17.0248 5.70578ZM8.92836 13.209C6.61869 13.209 4.74763 11.338 4.74763 9.02829C4.74763 6.71863 6.61869 4.84756 8.92836 4.84756C10.0372 4.84756 11.1005 5.28803 11.8846 6.07207C12.6686 6.85611 13.1091 7.91949 13.1091 9.02829C13.1091 10.1371 12.6686 11.2005 11.8846 11.9845C11.1005 12.7685 10.0372 13.209 8.92836 13.209ZM13.2755 5.66779C12.7356 5.66779 12.3006 5.2319 12.3006 4.69292C12.3006 4.56496 12.3258 4.43825 12.3748 4.32003C12.4237 4.20181 12.4955 4.09439 12.586 4.00391C12.6765 3.91342 12.7839 3.84165 12.9021 3.79268C13.0204 3.74371 13.1471 3.71851 13.275 3.71851C13.403 3.71851 13.5297 3.74371 13.6479 3.79268C13.7661 3.84165 13.8736 3.91342 13.964 4.00391C14.0545 4.09439 14.1263 4.20181 14.1753 4.32003C14.2242 4.43825 14.2494 4.56496 14.2494 4.69292C14.2494 5.2319 13.8136 5.66779 13.2755 5.66779Z" fill="#4B4B4B"/>
<path d="M8.9282 11.7446C10.428 11.7446 11.6439 10.5288 11.6439 9.02894C11.6439 7.5291 10.428 6.31323 8.9282 6.31323C7.42836 6.31323 6.21249 7.5291 6.21249 9.02894C6.21249 10.5288 7.42836 11.7446 8.9282 11.7446Z" fill="#4B4B4B"/>
</svg>
