<svg width="18" height="14" viewBox="0 0 18 14" fill="none" xmlns="http://www.w3.org/2000/svg">
<path d="M17.2079 1.92129C16.7513 2.61194 16.1912 3.20069 15.5275 3.68754C15.534 3.8181 15.5373 3.96568 15.5373 4.13027C15.5373 5.04473 15.4062 5.9603 15.144 6.87698C14.8818 7.79366 14.4813 8.67109 13.9424 9.50926C13.4036 10.3474 12.7618 11.09 12.0169 11.7369C11.272 12.3838 10.3767 12.8997 9.33082 13.2844C8.28497 13.6691 7.16409 13.8614 5.96819 13.8614C4.1018 13.8614 2.38303 13.349 0.81189 12.3242C1.09075 12.3558 1.3582 12.3716 1.61424 12.3716C3.17346 12.3716 4.5661 11.8832 5.79215 10.9064C5.06515 10.8928 4.41407 10.6652 3.8389 10.2236C3.26374 9.78199 2.86792 9.21769 2.65146 8.5307C2.86542 8.57214 3.07659 8.59287 3.28498 8.59287C3.58493 8.59287 3.88008 8.55308 4.17043 8.47351C3.39459 8.31549 2.75096 7.92252 2.23955 7.2946C1.72816 6.66668 1.47246 5.94194 1.47246 5.12039V5.07804C1.94867 5.34619 2.45663 5.48882 2.99633 5.50594C2.53673 5.19435 2.17233 4.78802 1.90315 4.28695C1.63394 3.78588 1.49934 3.24364 1.49934 2.66022C1.49934 2.04491 1.65095 1.47194 1.95418 0.941311C2.7979 1.99424 3.82023 2.83577 5.02119 3.46591C6.22217 4.09605 7.51059 4.44602 8.88645 4.5158C8.82776 4.26709 8.79837 4.00756 8.79826 3.73719C8.79826 2.79317 9.12676 1.98712 9.78377 1.31903C10.4408 0.650939 11.2334 0.316895 12.1617 0.316895C13.1336 0.316895 13.9522 0.676778 14.6176 1.39654C15.3778 1.24341 16.0896 0.966428 16.753 0.565599C16.4974 1.3836 16.0049 2.01463 15.2755 2.45869C15.9459 2.37768 16.59 2.19854 17.2079 1.92129H17.2079Z" fill="#4B4B4B"/>
</svg>
