<svg width="20" height="21" viewBox="0 0 20 21" fill="none" xmlns="http://www.w3.org/2000/svg">
<path d="M14.9884 6.95886V9.52382V9.88589C14.9884 10.1213 15.195 10.3459 15.4376 10.3351C15.6802 10.3243 15.8868 10.1374 15.8868 9.88589V7.32093V6.95886C15.8868 6.72348 15.6802 6.49886 15.4376 6.50965C15.195 6.51864 14.9884 6.70461 14.9884 6.95886Z" fill="#838092"/>
<path d="M5.79083 3.4705C6.10708 3.60078 6.42153 3.73105 6.73868 3.86132C7.49787 4.17398 8.25525 4.48572 9.01352 4.79749C9.93172 5.17482 10.8481 5.55216 11.7673 5.92952C12.5597 6.25477 13.353 6.5836 14.1483 6.90882C14.5328 7.06604 14.9137 7.24572 15.3054 7.38499C15.3099 7.38678 15.3162 7.38948 15.3216 7.39218C15.539 7.48202 15.8247 7.29514 15.8741 7.07772C15.9352 6.81718 15.7933 6.62131 15.5597 6.52519C15.2434 6.39492 14.929 6.26465 14.6118 6.13437C13.8527 5.82171 13.0953 5.50997 12.337 5.1982C11.4188 4.82087 10.5024 4.44353 9.58321 4.06617C8.79079 3.74092 7.99747 3.41209 7.20225 3.08687C6.81771 2.92965 6.43679 2.74997 6.04507 2.6107C6.04058 2.60891 6.03429 2.60621 6.0289 2.60352C5.92883 2.64322 5.52578 2.70055 5.47637 2.91797C5.10707 3.05394 5.03441 3.15881 5.79083 3.4705Z" fill="#838092"/>
<path d="M1 4.69643L10.4464 1L19.4821 4.69643M1 4.69643L10.4464 8.80357M1 4.69643V15.375L10.4464 19.8929M19.4821 4.69643L10.4464 8.80357M19.4821 4.69643V15.7857L10.4464 19.8929M10.4464 8.80357V19.8929" stroke="#838092" stroke-width="0.4"/>
</svg>
