<svg width="18" height="18" viewBox="0 0 18 18" fill="none" xmlns="http://www.w3.org/2000/svg">
<path d="M9.13867 0C7.1141 0.0137877 5.15722 0.730621 3.60279 2.02787C2.04837 3.32513 0.992991 5.12218 0.617207 7.11163C0.241423 9.10107 0.568582 11.1593 1.54272 12.9341C2.51685 14.709 4.07743 16.0903 5.95749 16.8416C5.83113 16.0147 5.83113 15.1734 5.95749 14.3465L6.98669 9.9802C6.82382 9.58476 6.74317 9.16029 6.74966 8.73267C6.74966 7.52257 7.45451 6.61188 8.32778 6.61188C8.48598 6.6095 8.64283 6.64135 8.78757 6.70523C8.93232 6.76911 9.06154 6.86353 9.1664 6.98201C9.27126 7.10049 9.34926 7.24024 9.39508 7.39168C9.44089 7.54312 9.45343 7.70267 9.43184 7.85941C9.43184 8.60792 8.95778 9.73069 8.70828 10.7661C8.65458 10.9592 8.64819 11.1624 8.68966 11.3585C8.73113 11.5546 8.81924 11.7378 8.94653 11.8927C9.07381 12.0475 9.23653 12.1694 9.4209 12.248C9.60527 12.3266 9.80586 12.3596 10.0057 12.3443C11.5526 12.3443 12.7503 10.7038 12.7503 8.34594C12.7658 7.86682 12.6813 7.38971 12.5022 6.94507C12.3231 6.50042 12.0532 6.09799 11.7099 5.76345C11.3665 5.42891 10.9572 5.16961 10.5081 5.00209C10.0589 4.83457 9.5798 4.7625 9.10125 4.7905C8.59032 4.76855 8.08026 4.85051 7.60192 5.0314C7.12359 5.2123 6.68694 5.48838 6.3184 5.84293C5.94985 6.19747 5.65709 6.62312 5.45781 7.09409C5.25854 7.56507 5.15691 8.07158 5.15907 8.58297C5.15213 9.29539 5.37044 9.9918 5.78283 10.5728C5.81282 10.6061 5.83418 10.6463 5.84505 10.6898C5.85593 10.7333 5.85598 10.7788 5.84521 10.8223C5.77659 11.0967 5.62689 11.6955 5.60194 11.8141C5.57699 11.9326 5.47095 12.0074 5.30877 11.9326C4.21719 11.4211 3.53729 9.83049 3.53729 8.54554C3.53729 5.79475 5.53956 3.26228 9.30709 3.26228C12.3323 3.26228 14.6902 5.42049 14.6902 8.30851C14.6902 11.315 12.8189 13.7352 10.1554 13.7352C9.76494 13.7488 9.37727 13.6647 9.0276 13.4904C8.67793 13.3161 8.37734 13.0572 8.15313 12.7372L7.61046 14.8144C7.35031 15.6216 6.98542 16.3912 6.52511 17.1036C7.37329 17.3542 8.25429 17.4762 9.13867 17.4653C11.4547 17.4653 13.6759 16.5453 15.3136 14.9076C16.9513 13.2699 17.8713 11.0487 17.8713 8.73267C17.8713 6.41662 16.9513 4.19543 15.3136 2.55774C13.6759 0.920047 11.4547 0 9.13867 0Z" fill="#4B4B4B"/>
</svg>
