<svg width="20" height="17" viewBox="0 0 20 17" fill="none" xmlns="http://www.w3.org/2000/svg">
<path d="M10.1859 17C10.0547 16.9996 9.92732 16.9561 9.82367 16.8763C6.52189 14.3319 4.24746 12.1409 2.65595 9.97932C0.625 7.21699 0.1618 4.66669 1.27823 2.3991C2.07398 0.7794 4.36029 -0.545812 7.03259 0.225756C8.30671 0.590772 9.41836 1.37356 10.1859 2.44622C10.9535 1.37356 12.0651 0.590772 13.3392 0.225756C16.0056 -0.534032 18.2978 0.7794 19.0936 2.3991C20.21 4.66669 19.7468 7.21699 17.7159 9.97932C16.1244 12.1409 13.8499 14.3319 10.5482 16.8763C10.4445 16.9561 10.3171 16.9996 10.1859 17Z" fill="#FF5C5C" fill-opacity="0.72"/>
</svg>
